<?xml version="1.0" encoding="UTF-8"?>
<svg id="Layer_2" data-name="Layer 2" xmlns="http://www.w3.org/2000/svg" viewBox="0 0 299.86 72.69">
  <defs>
    <style>
      .cls-1 {
        font-family: MADETOMMY-Medium, 'MADE TOMMY';
        font-size: 19.33px;
        font-weight: 500;
      }

      .cls-2 {
        letter-spacing: -.01em;
      }
    </style>
  </defs>
  <g id="Layer_1-2" data-name="Layer 1">
    <g>
      <path d="M18.83.06v27.18L41.94.06h22.13l-25.44,29.32,26.79,38.64h-23.11l-16.5-25.24h-.19l-6.8,7.57v17.67H0V.06h18.83Z"/>
      <path d="M236.88.06v16.12h-29.9v10.29l29.9.23v14.56l-29.9-.23v10.68h29.9v16.31h-48.54V.06h48.54Z"/>
    </g>
    <path d="M88.79,0c-18.77,0-33.99,15.22-33.99,33.99s15.22,33.99,33.99,33.99,33.99-15.22,33.99-33.99S107.56,0,88.79,0ZM88.79,51.38c-9.61,0-17.39-7.79-17.39-17.39s7.79-17.39,17.39-17.39,17.39,7.79,17.39,17.39-7.79,17.39-17.39,17.39Z"/>
    <path d="M167.03,46.95c11.68-3.82,17.52-11.23,17.52-22.23v-1.16c0-.05,0-.11,0-.16-.06-10.39-7.18-19.55-17.22-22.21-2.8-.74-6-1.12-9.77-1.12h-31.36v67.96h18.83v-19.61h1.46c8.71,10.16,14.02,16.36,16.6,19.61h22.81c-3.37-3.84-9.4-9.91-18.88-21.07ZM165.02,28.02c-1.3,2.54-3.94,4.28-6.99,4.28h-12.99v-15.7h12.99c4.34,0,7.85,3.51,7.85,7.85,0,.08,0,.16-.01.24.04,1.17-.22,2.34-.85,3.33Z"/>
    <text class="cls-1" transform="translate(244.18 51.38) scale(1 .97)"><tspan x="0" y="0">SO</tspan><tspan class="cls-2" x="26.77" y="0">L</tspan><tspan x="36.33" y="0">U</tspan><tspan x="0" y="17.08">TIO</tspan><tspan class="cls-2" x="30.9" y="17.08">N</tspan><tspan x="44.22" y="17.08">S</tspan></text>
  </g>
</svg>