<?xml version="1.0" encoding="UTF-8"?>
<svg id="Layer_2" data-name="Layer 2" xmlns="http://www.w3.org/2000/svg" viewBox="0 0 107.11 126.63">
  <defs>
    <style>
      .cls-1 {
        fill: #fff;
      }
    </style>
  </defs>
  <g id="Layer_1-2" data-name="Layer 1">
    <g>
      <path class="cls-1" d="M16.43.06v23.71L36.59.06h19.31l-22.19,25.58,23.38,33.71h-20.16l-14.4-22.02h-.17l-5.93,6.61v15.41H0V.06h16.43Z"/>
      <path class="cls-1" d="M96.55,67.34v14.06h-26.09v8.98l26.09.2v12.7l-26.09-.2v9.32h26.09v14.23h-42.35v-59.29h42.35Z"/>
    </g>
    <path class="cls-1" d="M77.46,0c-16.38,0-29.65,13.27-29.65,29.65s13.27,29.65,29.65,29.65,29.65-13.27,29.65-29.65S93.84,0,77.46,0ZM77.46,44.82c-8.38,0-15.17-6.79-15.17-15.17s6.79-15.17,15.17-15.17,15.17,6.79,15.17,15.17-6.79,15.17-15.17,15.17Z"/>
    <path class="cls-1" d="M35.61,108.25c10.19-3.33,15.29-9.8,15.29-19.4v-1.02s0-.09,0-.14c-.05-9.06-6.26-17.05-15.02-19.38-2.44-.65-5.23-.98-8.52-.98H0v59.29h16.43v-17.11h1.27c7.6,8.87,12.23,14.28,14.48,17.11h19.9c-2.94-3.35-8.2-8.64-16.47-18.38ZM33.86,91.73c-1.13,2.22-3.43,3.73-6.09,3.73h-11.34v-13.7h11.34c3.78,0,6.85,3.07,6.85,6.85,0,.07,0,.14-.01.21.04,1.02-.19,2.04-.74,2.91Z"/>
  </g>
</svg>